<svg width="43" height="33" viewBox="0 0 43 33" fill="none" xmlns="http://www.w3.org/2000/svg">
<path d="M36.0798 3.566C33.3832 2.34141 30.4914 1.43918 27.4679 0.92244C27.4128 0.912468 27.3578 0.93739 27.3295 0.987238C26.9576 1.64188 26.5456 2.49593 26.2571 3.1672C23.0052 2.68536 19.7699 2.68536 16.5846 3.1672C16.296 2.481 15.8691 1.64188 15.4956 0.987238C15.4672 0.939054 15.4122 0.914131 15.3571 0.92244C12.3353 1.43753 9.44353 2.33976 6.74521 3.566C6.72185 3.57596 6.70183 3.5926 6.68854 3.61418C1.20349 11.7243 -0.29909 19.6351 0.438027 27.4478C0.441362 27.486 0.463042 27.5225 0.493061 27.5458C4.11194 30.176 7.61744 31.7728 11.0578 32.8312C11.1129 32.8478 11.1712 32.8279 11.2063 32.783C12.0201 31.6831 12.7456 30.5233 13.3676 29.3037C13.4043 29.2323 13.3692 29.1475 13.2942 29.1193C12.1435 28.6873 11.0478 28.1606 9.99385 27.5624C9.91048 27.5142 9.90381 27.3962 9.9805 27.3397C10.2023 27.1752 10.4242 27.0041 10.6359 26.8313C10.6743 26.7997 10.7276 26.7931 10.7727 26.813C17.6969 29.9418 25.1931 29.9418 32.0356 26.813C32.0807 26.7914 32.1341 26.7981 32.1741 26.8296C32.3859 27.0024 32.6077 27.1752 32.8312 27.3397C32.9079 27.3962 32.9029 27.5142 32.8195 27.5624C31.7655 28.1722 30.6698 28.6873 29.5175 29.1176C29.4424 29.1459 29.4091 29.2323 29.4458 29.3037C30.0811 30.5216 30.8066 31.6814 31.6054 32.7814C31.6388 32.8279 31.6988 32.8478 31.7538 32.8312C35.2109 31.7728 38.7164 30.176 42.3353 27.5458C42.367 27.5225 42.387 27.4876 42.3903 27.4494C43.2725 18.4171 40.9127 10.5712 36.1348 3.61583C36.1231 3.5926 36.1032 3.57596 36.0798 3.566ZM14.4016 22.6906C12.3169 22.6906 10.5992 20.7965 10.5992 18.4703C10.5992 16.1441 12.2836 14.2499 14.4016 14.2499C16.5362 14.2499 18.2373 16.1607 18.2039 18.4703C18.2039 20.7965 16.5195 22.6906 14.4016 22.6906ZM28.4601 22.6906C26.3755 22.6906 24.6578 20.7965 24.6578 18.4703C24.6578 16.1441 26.3422 14.2499 28.4601 14.2499C30.5948 14.2499 32.2958 16.1607 32.2625 18.4703C32.2625 20.7965 30.5948 22.6906 28.4601 22.6906Z" fill="#3F37C9"/>
</svg>
