<svg width="32" height="33" viewBox="0 0 32 33" fill="none" xmlns="http://www.w3.org/2000/svg">
<path d="M16.2937 3.74453C20.4789 3.74453 20.9746 3.76046 22.6274 3.83587C24.1556 3.90562 24.9856 4.16097 25.538 4.37556C26.2695 4.6599 26.7917 4.99962 27.3402 5.54808C27.8887 6.09655 28.2284 6.61875 28.5127 7.35033C28.7273 7.90271 28.9827 8.73265 29.0524 10.2608C29.1278 11.9137 29.1438 12.4094 29.1438 16.5946C29.1438 20.7799 29.1278 21.2756 29.0524 22.9284C28.9827 24.4566 28.7273 25.2865 28.5127 25.8389C28.2284 26.5705 27.8887 27.0927 27.3402 27.6412C26.7917 28.1896 26.2695 28.5293 25.538 28.8136C24.9856 29.0283 24.1556 29.2836 22.6274 29.3534C20.9749 29.4288 20.4792 29.4447 16.2937 29.4447C12.1082 29.4447 11.6125 29.4288 9.95993 29.3534C8.4317 29.2836 7.60176 29.0283 7.04944 28.8136C6.3178 28.5293 5.7956 28.1896 5.24713 27.6412C4.69867 27.0927 4.35895 26.5705 4.07467 25.8389C3.86002 25.2865 3.60467 24.4566 3.53492 22.9284C3.45951 21.2756 3.44358 20.7799 3.44358 16.5946C3.44358 12.4094 3.45951 11.9137 3.53492 10.2609C3.60467 8.73265 3.86002 7.90271 4.07467 7.35033C4.35895 6.61875 4.69867 6.09655 5.24713 5.54808C5.7956 4.99962 6.3178 4.6599 7.04944 4.37556C7.60176 4.16097 8.4317 3.90562 9.95987 3.83587C11.6127 3.76046 12.1084 3.74453 16.2937 3.74453ZM16.2937 0.920273C12.0368 0.920273 11.503 0.938316 9.8312 1.0146C8.16279 1.09075 7.02343 1.35568 6.02637 1.74319C4.99564 2.14375 4.12152 2.67971 3.25014 3.55109C2.37876 4.42247 1.8428 5.29659 1.44224 6.32732C1.05473 7.32438 0.789803 8.46374 0.713647 10.1322C0.637366 11.8039 0.619385 12.3377 0.619385 16.5946C0.619385 20.8515 0.637366 21.3853 0.713647 23.0571C0.789803 24.7255 1.05473 25.8649 1.44224 26.8619C1.8428 27.8926 2.37876 28.7668 3.25014 29.6382C4.12152 30.5095 4.99564 31.0455 6.02637 31.4461C7.02343 31.8336 8.16279 32.0985 9.8312 32.1746C11.503 32.2509 12.0368 32.2689 16.2937 32.2689C20.5506 32.2689 21.0844 32.2509 22.7561 32.1746C24.4246 32.0985 25.5639 31.8336 26.561 31.4461C27.5917 31.0455 28.4658 30.5095 29.3372 29.6382C30.2086 28.7668 30.7445 27.8927 31.1451 26.8619C31.5326 25.8649 31.7975 24.7255 31.8737 23.0571C31.95 21.3853 31.968 20.8515 31.968 16.5946C31.968 12.3377 31.95 11.8039 31.8737 10.1322C31.7975 8.46374 31.5326 7.32438 31.1451 6.32732C30.7445 5.29659 30.2086 4.42247 29.3372 3.55109C28.4658 2.67971 27.5917 2.14375 26.561 1.74319C25.5639 1.35568 24.4246 1.09075 22.7561 1.0146C21.0844 0.938316 20.5506 0.920273 16.2937 0.920273ZM16.2937 8.54562C11.8484 8.54562 8.24467 12.1493 8.24467 16.5946C8.24467 21.0399 11.8484 24.6436 16.2937 24.6436C20.739 24.6436 24.3427 21.0399 24.3427 16.5946C24.3427 12.1493 20.739 8.54562 16.2937 8.54562ZM16.2937 21.8194C13.4081 21.8194 11.0689 19.4802 11.0689 16.5946C11.0689 13.7091 13.4081 11.3698 16.2937 11.3698C19.1792 11.3698 21.5185 13.7091 21.5185 16.5946C21.5185 19.4802 19.1792 21.8194 16.2937 21.8194ZM26.5416 8.22762C26.5416 9.26643 25.6995 10.1086 24.6607 10.1086C23.6219 10.1086 22.7797 9.26643 22.7797 8.22762C22.7797 7.18881 23.6219 6.34673 24.6607 6.34673C25.6995 6.34673 26.5416 7.18881 26.5416 8.22762Z" fill="#3F37C9"/>
</svg>
