<svg width="41" height="39" viewBox="0 0 41 39" fill="none" xmlns="http://www.w3.org/2000/svg">
<path d="M8.74756 4.62517C8.747 5.75234 8.29869 6.83312 7.50126 7.62975C6.70383 8.42639 5.6226 8.87361 4.49543 8.87305C3.36826 8.87248 2.28748 8.42418 1.49085 7.62675C0.694221 6.82932 0.246996 5.74809 0.247559 4.62092C0.248123 3.49375 0.69643 2.41297 1.49386 1.61634C2.29129 0.81971 3.37251 0.372484 4.49968 0.373047C5.62685 0.373611 6.70763 0.821918 7.50427 1.61935C8.3009 2.41677 8.74812 3.498 8.74756 4.62517V4.62517ZM8.87506 12.0202H0.375059V38.6252H8.87506V12.0202ZM22.3051 12.0202H13.8476V38.6252H22.2201V24.6639C22.2201 16.8864 32.3563 16.1639 32.3563 24.6639V38.6252H40.7501V21.7739C40.7501 8.66267 25.7476 9.15142 22.2201 15.5902L22.3051 12.0202V12.0202Z" fill="#3F37C9"/>
</svg>
