<svg width="38" height="32" viewBox="0 0 38 32" fill="none" xmlns="http://www.w3.org/2000/svg">
<path d="M37.2701 4.53223C35.8988 5.14486 34.4251 5.55892 32.8783 5.74514C34.4571 4.79178 35.6695 3.28224 36.2404 1.48361C34.763 2.36624 33.1266 3.0073 31.3849 3.35282C29.99 1.85577 28.0028 0.920273 25.8036 0.920273C21.5806 0.920273 18.1569 4.36908 18.1569 8.62292C18.1569 9.22663 18.2247 9.81454 18.355 10.3783C12.0001 10.0571 6.36586 6.99046 2.59455 2.33025C1.93637 3.46791 1.55929 4.7911 1.55929 6.20273C1.55929 8.87506 2.90932 11.2328 4.96102 12.614C3.70751 12.5741 2.52857 12.2276 1.49754 11.6507C1.49699 11.6828 1.49699 11.7151 1.49699 11.7475C1.49699 15.4796 4.13271 18.5929 7.63069 19.3004C6.989 19.4765 6.31351 19.5706 5.61607 19.5706C5.12339 19.5706 4.64434 19.5224 4.17756 19.4324C5.15052 22.4927 7.97436 24.7197 11.3203 24.7819C8.70343 26.8478 5.4064 28.0792 1.82404 28.0792C1.20689 28.0792 0.598197 28.0428 0 27.9717C3.38387 30.1572 7.40316 31.4323 11.7213 31.4323C25.7857 31.4323 33.4767 19.695 33.4767 9.51612C33.4767 9.18213 33.4693 8.84993 33.4546 8.51964C34.9484 7.43363 36.2449 6.07693 37.2701 4.53223Z" fill="#3F37C9"/>
</svg>
